<svg width="680" height="360" viewBox="0 0 680 360" fill="none" xmlns="http://www.w3.org/2000/svg">
  <rect width="680" height="360" rx="46" fill="#FFFFFF"/>
  <path d="M80 292H600" stroke="#220016" stroke-width="4" stroke-linecap="round"/>
  <path d="M80 86L118 24H160L198 86H80Z" fill="#FFFFFF" stroke="#220016" stroke-width="4" stroke-linejoin="round"/>
  <path d="M139 86V292" stroke="#220016" stroke-width="5" stroke-linecap="round"/>
  <rect x="508" y="35" width="112" height="78" rx="2" fill="#FFFFFF" stroke="#220016" stroke-width="4"/>
  <path d="M523 50L606 98M606 50L523 98" stroke="#220016" stroke-width="2.5" opacity=".42"/>
  <path d="M154 247H526C548 247 566 265 566 287V306H114V287C114 265 132 247 154 247Z" fill="#EDA7DB"/>
  <path d="M114 287H566" stroke="#220016" stroke-width="8" stroke-linecap="round"/>
  <path d="M382 132C405 96 454 86 490 112C525 138 524 192 489 217C454 242 397 229 377 191C366 170 368 153 382 132Z" fill="#FFFFFF" stroke="#220016" stroke-width="5"/>
  <path d="M457 101C480 83 511 92 522 119C492 122 473 116 457 101Z" fill="#220016"/>
  <path d="M413 160C431 175 455 174 473 157" stroke="#220016" stroke-width="5" stroke-linecap="round"/>
  <circle cx="483" cy="151" r="5" fill="#220016"/>
  <path d="M375 204C338 194 295 185 249 184C211 184 172 197 137 219" stroke="#220016" stroke-width="15" stroke-linecap="round"/>
  <path d="M247 184C297 205 358 220 429 225" stroke="#220016" stroke-width="17" stroke-linecap="round"/>
  <path d="M137 219L88 258" stroke="#220016" stroke-width="11" stroke-linecap="round"/>
  <path d="M429 225L506 263" stroke="#220016" stroke-width="15" stroke-linecap="round"/>
  <circle cx="306" cy="108" r="45" fill="#F7D4ED"/>
  <text x="274" y="82" fill="#220016" font-family="Arial, sans-serif" font-size="18" font-weight="700">voice</text>
  <path d="M278 110C292 94 313 94 326 110" stroke="#220016" stroke-width="5" stroke-linecap="round"/>
  <path d="M326 110C340 94 361 94 374 110" stroke="#220016" stroke-width="5" stroke-linecap="round"/>
</svg>
